<svg>
    <symbol id="user-icon" xmlns="http://www.w3.org/2000/svg" viewBox="0 0 11.001 11.001"><path d="M5.5.313a5.5,5.5,0,1,0,5.5,5.5A5.5,5.5,0,0,0,5.5.313Zm0,2.129A1.952,1.952,0,1,1,3.549,4.394,1.952,1.952,0,0,1,5.5,2.442Zm0,7.63A4.25,4.25,0,0,1,2.251,8.559,2.473,2.473,0,0,1,4.436,7.232a.543.543,0,0,1,.157.024A2.937,2.937,0,0,0,5.5,7.41a2.925,2.925,0,0,0,.907-.153.543.543,0,0,1,.157-.024A2.473,2.473,0,0,1,8.75,8.559,4.25,4.25,0,0,1,5.5,10.071Z" transform="translate(0 -0.313)" fill="currentColor"/></symbol>
    <symbol id="calendar" xmlns="http://www.w3.org/2000/svg" viewBox="0 0 12.569 13.966"><path d="M8.69,9.285h-1.4v1.4h1.4Zm2.793,0h-1.4v1.4h1.4Zm2.793,0h-1.4v1.4h1.4Zm1.4-4.888h-.7V3h-1.4V4.4H7.991V3h-1.4V4.4H5.9a1.39,1.39,0,0,0-1.39,1.4L4.5,15.569a1.4,1.4,0,0,0,1.4,1.4h9.776a1.4,1.4,0,0,0,1.4-1.4V5.793A1.4,1.4,0,0,0,15.673,4.4Zm0,11.173H5.9V7.888h9.776Z" transform="translate(-4.5 -3)" fill="currentColor"/></symbol>
    <symbol id="arrow-left" xmlns="http://www.w3.org/2000/svg" viewBox="0 0 512 512"><path fill="none" stroke="currentColor" stroke-linecap="round" stroke-linejoin="round" stroke-width="48" d="M244 400L100 256l144-144M120 256h292"/></symbol>
    <symbol id="arrow-right" xmlns="http://www.w3.org/2000/svg" viewBox="0 0 512 512"><path fill="none" stroke="currentColor" stroke-linecap="round" stroke-linejoin="round" stroke-width="48" d="M268 112l144 144-144 144M392 256H100"/></symbol>

</svg>